<svg width="32" height="40" viewBox="0 0 32 40" fill="none" xmlns="http://www.w3.org/2000/svg">
<path d="M0 30.4481C3.82814 38.4064 12.2595 40.1272 15.9967 39.9928V17.4834H6.7757C2.49409 19.1687 0.474562 26.8287 0 30.4481Z" fill="#1A1919"/>
<path d="M32 30.4481C28.1719 38.4064 19.7405 40.1272 16.0033 39.9928V17.4834H25.2243C29.5059 19.1687 31.5254 26.8287 32 30.4481Z" fill="#1C1B1B"/>
<path d="M0.593262 20.4939C2.11186 18.6734 6.90318 17.0045 9.10902 16.3977H16.0034V35.7017C12.6814 35.3116 8.52021 32.0455 6.85485 30.4612C8.74255 29.811 8.45869 28.6385 8.0808 28.1335C6.96822 27.2805 5.90792 28.489 5.51685 29.1999C3.62914 28.3104 1.44791 23.0253 0.593262 20.4939Z" fill="#595353"/>
<path d="M31.3872 20.4939C29.8686 18.6734 25.0773 17.0045 22.8714 16.3977H15.9771V35.7017C19.299 35.3116 23.4603 32.0455 25.1256 30.4612C23.2379 29.811 23.5218 28.6385 23.8997 28.1335C25.0123 27.2805 26.0725 28.489 26.4636 29.1999C28.3513 28.3104 30.5326 23.0253 31.3872 20.4939Z" fill="#555050"/>
<path d="M1.73367 21.6251C2.30051 20.9424 4.27247 19.166 6.25519 17.4639L15.8058 18.5497V27.5742C15.8058 27.5742 14.3161 27.9904 14.2964 29.6093C14.2766 31.2283 15.7003 31.7874 15.7003 31.7874V35.1554C12.2067 33.8892 10.4228 32.906 7.6591 30.5001C8.40748 29.9848 8.86528 29.5833 8.86528 28.8161C8.86528 28.0489 8.12049 27.2492 7.40864 27.3272C6.69679 27.4052 6.27497 27.6393 5.53676 28.6666C5.12313 28.4799 1.16684 22.3077 1.73367 21.6251Z" fill="#2B2626"/>
<path d="M30.2468 21.6316C29.68 20.9489 27.708 19.1726 25.7253 17.4705L16.1747 18.5563V27.5808C16.1747 27.5808 17.6643 27.997 17.6841 29.6159C17.7039 31.2349 16.2802 31.794 16.2802 31.794V35.162C19.7738 33.8958 21.5576 32.9126 24.3214 30.5067C23.573 29.9914 23.1152 29.5899 23.1152 28.8227C23.1152 28.0555 23.86 27.2557 24.5718 27.3338C25.2837 27.4118 25.7055 27.6459 26.4437 28.6732C26.8573 28.4865 30.8136 22.3143 30.2468 21.6316Z" fill="#2B2626"/>
<path d="M4.11279 19.5445C5.12198 18.9245 5.57968 18.4905 6.30764 17.646L6.90085 17.0608L16.0098 19.0764V26.5145C14.9265 25.2551 14.6227 24.5156 14.1643 23.1465C13.4843 24.2141 12.9594 24.5984 11.8112 24.967C12.0156 23.9387 11.9891 23.3622 11.8112 22.3338C11.0413 23.1463 10.574 23.4579 9.64935 23.6472C9.81012 22.8999 9.8669 22.4758 9.64935 21.6706C8.94473 22.2152 8.50986 22.4559 7.6061 22.6784C7.81685 22.0436 7.8408 21.6877 7.6061 21.0529C6.92787 21.3109 6.55005 21.3959 5.87922 21.4755C6.17417 20.6361 6.2617 20.2175 6.30764 19.5445C5.45053 19.7066 4.9699 19.7149 4.11279 19.5445Z" fill="#050504"/>
<path d="M27.8475 19.5445C26.8383 18.9245 26.3806 18.4905 25.6526 17.646L25.0594 17.0608L15.9505 19.0764V26.5145C17.0338 25.2551 17.3376 24.5156 17.796 23.1465C18.476 24.2141 19.0009 24.5984 20.149 24.967C19.9447 23.9387 19.9712 23.3622 20.149 22.3338C20.9189 23.1463 21.3863 23.4579 22.3109 23.6472C22.1502 22.8999 22.0934 22.4758 22.3109 21.6706C23.0156 22.2152 23.4504 22.4559 24.3542 22.6784C24.1434 22.0436 24.1195 21.6877 24.3542 21.0529C25.0324 21.3109 25.4102 21.3959 26.0811 21.4755C25.7861 20.6361 25.6986 20.2175 25.6526 19.5445C26.5098 19.7066 26.9904 19.7149 27.8475 19.5445Z" fill="#090908"/>
<path d="M15.9308 23.4653V1.61255C11.5858 1.79348 8.37076 6.07282 8.04779 7.51623C7.72483 8.95964 7.53418 11.8754 7.15799 14.1871C6.7818 16.4989 5.26022 17.9722 4.99609 18.0427C5.97647 18.0158 6.44207 17.9107 7.15799 17.6006C6.56704 18.2104 6.35192 18.5538 6.09681 19.1676C6.67234 19.0033 6.96982 18.8906 7.44141 18.6409C7.52693 19.283 7.51573 19.666 7.44141 20.3704C8.51119 19.9318 9.0341 19.5486 9.84058 18.6409C9.99695 19.6136 10.0064 20.1666 9.84058 21.1701C10.8398 20.7901 11.3356 20.4991 12.042 19.7657C12.31 20.6806 12.2677 21.224 12.042 22.2169C13.3043 21.7852 13.7012 21.2045 14.0391 19.7657C14.3859 21.3736 14.6631 22.2331 15.9308 23.4653Z" fill="#FEFFFC"/>
<path d="M15.9308 23.4653V1.61255C20.2758 1.79348 23.5304 6.07282 23.8534 7.51623C24.1763 8.95964 24.367 11.8754 24.7432 14.1871C25.1193 16.4989 26.6409 17.9722 26.9051 18.0427C25.9247 18.0158 25.4591 17.9107 24.7432 17.6006C25.3341 18.2104 25.5492 18.5538 25.8043 19.1676C25.2288 19.0033 24.9313 18.8906 24.4597 18.6409C24.3742 19.283 24.3854 19.666 24.4597 20.3704C23.39 19.9318 22.867 19.5486 22.0606 18.6409C21.9042 19.6136 21.8947 20.1666 22.0606 21.1701C21.0613 20.7901 20.5656 20.4991 19.8591 19.7657C19.5911 20.6806 19.6334 21.224 19.8591 22.2169C18.5969 21.7852 18.1999 21.2045 17.862 19.7657C17.5152 21.3736 17.1985 22.2331 15.9308 23.4653Z" fill="#E8E9E7"/>
<path d="M11.2978 6.98291L15.3447 9.81772L15.1931 11.8788C15.1931 11.8788 11.6273 13.1163 10.1245 13.2572C10.1245 13.2572 9.00405 9.01149 9.03041 7.37952L11.2978 6.98291Z" fill="#EFEDE7"/>
<path d="M20.5772 6.98291L16.5303 9.81772L16.6819 11.8788C16.6819 11.8788 20.2477 13.1163 21.7505 13.2572C21.7505 13.2572 22.871 9.01149 22.8446 7.37952L20.5772 6.98291Z" fill="#C7C5C3"/>
<path d="M19.8457 15.2274C19.7982 14.3171 17.2378 12.6981 15.9635 12.0024V16.4627C17.2773 16.4302 19.8931 16.1376 19.8457 15.2274Z" fill="#C7C5C3"/>
<path d="M12.0753 15.2274C12.1228 14.3171 14.6832 12.6981 15.9575 12.0024V16.4627C14.6437 16.4302 12.0279 16.1376 12.0753 15.2274Z" fill="#EFEDE7"/>
<mask id="mask0_195_194" style="mask-type:alpha" maskUnits="userSpaceOnUse" x="9" y="6" width="7" height="8">
<path d="M11.2978 6.98291L15.3447 9.81772L15.1931 11.8788C15.1931 11.8788 11.6273 13.1163 10.1245 13.2572C10.1245 13.2572 9.00405 9.01149 9.03041 7.37952L11.2978 6.98291Z" fill="#EFEDE7"/>
</mask>
<g mask="url(#mask0_195_194)">
<path d="M13.7493 8.14682C13.7493 8.82549 13.1915 9.37567 12.5035 9.37567C11.8155 9.37567 11.2578 8.82549 11.2578 8.14682C11.2578 7.46814 11.8155 6.91797 12.5035 6.91797C13.1915 6.91797 13.7493 7.46814 13.7493 8.14682Z" fill="#F0C76F"/>
<path d="M12.9715 8.14682C12.9715 8.40177 12.762 8.60845 12.5035 8.60845C12.2451 8.60845 12.0356 8.40177 12.0356 8.14682C12.0356 7.89187 12.2451 7.68519 12.5035 7.68519C12.762 7.68519 12.9715 7.89187 12.9715 8.14682Z" fill="#0A0A0A"/>
</g>
<mask id="mask1_195_194" style="mask-type:alpha" maskUnits="userSpaceOnUse" x="16" y="6" width="7" height="8">
<path d="M20.5777 6.98291L16.5308 9.81772L16.6824 11.8788C16.6824 11.8788 20.2482 13.1163 21.7509 13.2572C21.7509 13.2572 22.8714 9.01149 22.8451 7.37952L20.5777 6.98291Z" fill="#C7C5C3"/>
</mask>
<g mask="url(#mask1_195_194)">
<path d="M20.947 8.14682C20.947 8.82549 20.3893 9.37567 19.7013 9.37567C19.0133 9.37567 18.4556 8.82549 18.4556 8.14682C18.4556 7.46814 19.0133 6.91797 19.7013 6.91797C20.3893 6.91797 20.947 7.46814 20.947 8.14682Z" fill="#F0C76F"/>
<path d="M20.1693 8.14682C20.1693 8.40177 19.9597 8.60845 19.7013 8.60845C19.4428 8.60845 19.2333 8.40177 19.2333 8.14682C19.2333 7.89187 19.4428 7.68519 19.7013 7.68519C19.9597 7.68519 20.1693 7.89187 20.1693 8.14682Z" fill="#0A0A0A"/>
</g>
<path d="M15.99 15.3573L15.9834 7.72413C15.7593 7.70463 15.2782 7.9647 15.0409 8.6734C14.8036 9.38209 14.1445 9.91525 13.6238 10.1818C13.1031 10.4484 12.4572 10.3798 12.1474 10.4596C11.8376 10.5394 12.0551 10.826 12.1474 10.91C12.8592 11.7098 14.9865 12.4566 15.2254 12.9256C15.4643 13.3946 15.3111 14.7981 15.3573 14.9152C15.4034 15.0322 15.6187 15.3329 15.99 15.3573Z" fill="#DCA429"/>
<path d="M15.99 15.3573L15.9834 7.72413C16.1878 7.69813 16.6623 7.9647 16.8996 8.6734C17.1369 9.38209 17.796 9.91525 18.3167 10.1818C18.8374 10.4484 19.4833 10.3798 19.7931 10.4596C20.1029 10.5394 19.8854 10.826 19.7931 10.91C19.0813 11.7098 16.9539 12.4566 16.715 12.9256C16.4761 13.3946 16.6294 14.7981 16.5832 14.9152C16.5371 15.0322 16.3613 15.3329 15.99 15.3573Z" fill="#C99725"/>
<path d="M14.9684 9.27157C15.3243 8.38732 15.9703 8.3223 15.9703 8.3223V7.17798C15.9703 7.17798 15.0673 7.17798 14.7443 7.78265C14.4213 8.38732 14.4872 8.73842 14.4609 9.26507C14.4345 9.79172 14.2368 10.8255 14.2368 10.8255C14.2368 10.8255 14.6125 10.1558 14.9684 9.27157Z" fill="#DDCD8F"/>
<path d="M16.9523 9.27157C16.5964 8.38732 15.9505 8.3223 15.9505 8.3223V7.17798C15.9505 7.17798 16.8535 7.17798 17.1764 7.78265C17.4994 8.38732 17.4335 8.73842 17.4598 9.26507C17.4862 9.79172 17.6839 10.8255 17.6839 10.8255C17.6839 10.8255 17.3083 10.1558 16.9523 9.27157Z" fill="#DDCD8F"/>
<path d="M8.88477 1.42391C8.93969 2.23014 9.21564 3.8764 9.88003 4.01164L9.6032 4.38225H22.2977L22.0209 4.01164C22.6853 3.8764 22.9613 2.23014 23.0162 1.42391C21.8282 2.04927 21.3687 2.20541 20.8806 2.17162C20.2021 1.88385 19.9208 1.62643 19.5031 1.08581C19.1177 1.69249 18.8923 1.94045 18.4353 1.83352C17.782 1.31176 17.3101 1.08072 16.3328 0.747713V0H15.5682V0.747713C14.5908 1.08072 14.119 1.31176 13.4656 1.83352C13.0087 1.94045 12.7833 1.69249 12.3978 1.08581C11.9802 1.62643 11.6989 1.88385 11.0203 2.17162C10.5322 2.20541 10.0728 2.04927 8.88477 1.42391Z" fill="#B1B1B1"/>
</svg>
