<svg width="49" height="62" viewBox="0 0 49 62" fill="none" xmlns="http://www.w3.org/2000/svg">
<path d="M0 47.1947C5.86183 59.53 18.7724 62.1973 24.495 61.989V27.0994H10.3753C3.81907 29.7116 0.726674 41.5847 0 47.1947Z" fill="#1A1919"/>
<path d="M49 47.1947C43.1382 59.53 30.2276 62.1973 24.505 61.989V27.0994H38.6247C45.1809 29.7116 48.2733 41.5847 49 47.1947Z" fill="#1C1B1B"/>
<path d="M0.908342 31.7655C3.2337 28.9436 10.5704 26.357 13.9481 25.4164H24.505V55.3376C19.4183 54.7329 13.0465 49.6705 10.4964 47.2148C13.3869 46.207 12.9523 44.3897 12.3736 43.6069C10.67 42.2847 9.04641 44.1579 8.44758 45.2597C5.55703 43.8811 2.21703 35.6891 0.908342 31.7655Z" fill="#595353"/>
<path d="M48.0614 31.7655C45.736 28.9436 38.3993 26.357 35.0216 25.4164H24.4647V55.3376C29.5514 54.7329 35.9232 49.6705 38.4733 47.2148C35.5828 46.207 36.0174 44.3897 36.5961 43.6069C38.2997 42.2847 39.9233 44.1579 40.5221 45.2597C43.4127 43.8811 46.7527 35.6891 48.0614 31.7655Z" fill="#555050"/>
<path d="M2.65438 33.519C3.52235 32.4608 6.54192 29.7074 9.57796 27.0692L24.2023 28.7522V42.7403C24.2023 42.7403 21.9213 43.3852 21.891 45.8946C21.8608 48.404 24.0408 49.2707 24.0408 49.2707V54.4911C18.6911 52.5284 15.9597 51.0045 11.7277 47.2753C12.8736 46.4766 13.5747 45.8543 13.5747 44.6651C13.5747 43.4759 12.4342 42.2364 11.3442 42.3573C10.2542 42.4782 9.60824 42.841 8.47786 44.4333C7.84449 44.144 1.78641 34.5772 2.65438 33.519Z" fill="#2B2626"/>
<path d="M46.3153 33.5291C45.4474 32.4709 42.4278 29.7175 39.3918 27.0792L24.7675 28.7622V42.7503C24.7675 42.7503 27.0484 43.3953 27.0787 45.9047C27.109 48.4141 24.9289 49.2808 24.9289 49.2808V54.5011C30.2786 52.5385 33.01 51.0146 37.242 47.2854C36.0961 46.4867 35.3951 45.8644 35.3951 44.6752C35.3951 43.486 36.5355 42.2464 37.6255 42.3674C38.7156 42.4883 39.3615 42.8511 40.4919 44.4434C41.1252 44.1541 47.1833 34.5873 46.3153 33.5291Z" fill="#2B2626"/>
<path d="M6.29784 30.2941C7.84316 29.333 8.54401 28.6603 9.6587 27.3513L10.567 26.4443L24.5151 29.5685V41.0976C22.8563 39.1456 22.3912 37.9992 21.6892 35.8772C20.648 37.532 19.8442 38.1276 18.0861 38.699C18.3991 37.1051 18.3584 36.2115 18.0861 34.6175C16.9072 35.8769 16.1916 36.3598 14.7757 36.6532C15.0219 35.4949 15.1088 34.8376 14.7757 33.5895C13.6967 34.4337 13.0308 34.8068 11.647 35.1516C11.9697 34.1677 12.0063 33.6161 11.647 32.6321C10.6084 33.0319 10.0299 33.1638 9.00268 33.2872C9.45432 31.9861 9.58835 31.3373 9.6587 30.2941C8.34625 30.5454 7.61029 30.5582 6.29784 30.2941Z" fill="#050504"/>
<path d="M42.6416 30.2941C41.0963 29.333 40.3954 28.6603 39.2807 27.3513L38.3724 26.4443L24.4243 29.5685V41.0976C26.0831 39.1456 26.5483 37.9992 27.2503 35.8772C28.2914 37.532 29.0952 38.1276 30.8533 38.699C30.5404 37.1051 30.581 36.2115 30.8533 34.6175C32.0323 35.8769 32.7479 36.3598 34.1637 36.6532C33.9176 35.4949 33.8306 34.8376 34.1637 33.5895C35.2427 34.4337 35.9086 34.8068 37.2925 35.1516C36.9698 34.1677 36.9331 33.6161 37.2925 32.6321C38.331 33.0319 38.9096 33.1638 39.9368 33.2872C39.4851 31.9861 39.3511 31.3373 39.2807 30.2941C40.5932 30.5454 41.3292 30.5582 42.6416 30.2941Z" fill="#090908"/>
<path d="M24.4546 36.371V2.49931C17.8013 2.77976 12.8177 9.41273 12.3232 11.65C11.8286 13.8873 11.5367 18.4067 10.9607 21.9899C10.3846 25.5731 8.0547 27.8568 7.65026 27.9661C9.15145 27.9244 9.86441 27.7615 10.9607 27.2808C10.0558 28.226 9.72637 28.7582 9.33574 29.7096C10.217 29.455 10.6725 29.2803 11.3946 28.8933C11.5256 29.8885 11.5084 30.4822 11.3946 31.574C13.0328 30.8941 13.8335 30.3002 15.0684 28.8933C15.3078 30.4009 15.3223 31.258 15.0684 32.8135C16.5985 32.2246 17.3576 31.7735 18.4393 30.6367C18.8497 32.0548 18.785 32.897 18.4393 34.4361C20.3721 33.7668 20.98 32.8669 21.4974 30.6367C22.0284 33.1289 22.5134 34.4612 24.4546 36.371Z" fill="#FEFFFC"/>
<path d="M24.4546 36.371V2.49931C31.1079 2.77976 36.0915 9.41273 36.586 11.65C37.0805 13.8873 37.3725 18.4067 37.9485 21.9899C38.5245 25.5731 40.8545 27.8568 41.2589 27.9661C39.7577 27.9244 39.0448 27.7615 37.9485 27.2808C38.8534 28.226 39.1828 28.7582 39.5734 29.7096C38.6922 29.455 38.2366 29.2803 37.5145 28.8933C37.3836 29.8885 37.4007 30.4822 37.5145 31.574C35.8764 30.8941 35.0757 30.3002 33.8408 28.8933C33.6013 30.4009 33.5869 31.258 33.8408 32.8135C32.3107 32.2246 31.5516 31.7735 30.4698 30.6367C30.0594 32.0548 30.1242 32.897 30.4698 34.4361C28.537 33.7668 27.9292 32.8669 27.4117 30.6367C26.8808 33.1289 26.3958 34.4612 24.4546 36.371Z" fill="#E8E9E7"/>
<path d="M17.2996 10.8236L23.4965 15.2176L23.2643 18.4123C23.2643 18.4123 17.8042 20.3304 15.5031 20.5488C15.5031 20.5488 13.7873 13.9679 13.8277 11.4384L17.2996 10.8236Z" fill="#EFEDE7"/>
<path d="M31.5094 10.8236L25.3125 15.2176L25.5446 18.4123C25.5446 18.4123 31.0047 20.3304 33.3059 20.5488C33.3059 20.5488 35.0216 13.9679 34.9813 11.4384L31.5094 10.8236Z" fill="#C7C5C3"/>
<path d="M30.3891 23.6024C30.3164 22.1915 26.3957 19.6821 24.4445 18.6038V25.5172C26.4563 25.4668 30.4618 25.0133 30.3891 23.6024Z" fill="#C7C5C3"/>
<path d="M18.4908 23.6024C18.5634 22.1915 22.4841 19.6821 24.4354 18.6038V25.5172C22.4236 25.4668 18.4181 25.0133 18.4908 23.6024Z" fill="#EFEDE7"/>
<path d="M17.2996 10.8236L23.4965 15.2176L23.2643 18.4123C23.2643 18.4123 17.8042 20.3304 15.5031 20.5488C15.5031 20.5488 13.7873 13.9679 13.8277 11.4384L17.2996 10.8236Z" fill="#EFEDE7"/>
<path d="M21.0533 12.6276C21.0533 13.6795 20.1993 14.5323 19.1458 14.5323C18.0923 14.5323 17.2383 13.6795 17.2383 12.6276C17.2383 11.5756 18.0923 10.7229 19.1458 10.7229C20.1993 10.7229 21.0533 11.5756 21.0533 12.6276Z" fill="#F0C76F"/>
<path d="M19.8624 12.6276C19.8624 13.0227 19.5416 13.3431 19.1458 13.3431C18.7501 13.3431 18.4292 13.0227 18.4292 12.6276C18.4292 12.2324 18.7501 11.912 19.1458 11.912C19.5416 11.912 19.8624 12.2324 19.8624 12.6276Z" fill="#0A0A0A"/>
<path d="M31.5094 10.8236L25.3125 15.2176L25.5446 18.4123C25.5446 18.4123 31.0047 20.3304 33.3059 20.5488C33.3059 20.5488 35.0216 13.9679 34.9813 11.4384L31.5094 10.8236Z" fill="#C7C5C3"/>
<path d="M32.0746 12.6276C32.0746 13.6795 31.2205 14.5323 30.167 14.5323C29.1136 14.5323 28.2595 13.6795 28.2595 12.6276C28.2595 11.5756 29.1136 10.7229 30.167 10.7229C31.2205 10.7229 32.0746 11.5756 32.0746 12.6276Z" fill="#F0C76F"/>
<path d="M30.8836 12.6276C30.8836 13.0227 30.5628 13.3431 30.167 13.3431C29.7713 13.3431 29.4505 13.0227 29.4505 12.6276C29.4505 12.2324 29.7713 11.912 30.167 11.912C30.5628 11.912 30.8836 12.2324 30.8836 12.6276Z" fill="#0A0A0A"/>
<path d="M24.4445 23.8039L24.4344 11.9725C24.0912 11.9423 23.3949 12.3454 23.0315 13.4439C22.6682 14.5423 21.6589 15.3687 20.8616 15.7819C20.0642 16.1951 19.0752 16.0888 18.6008 16.2125C18.1265 16.3362 18.4595 16.7804 18.6008 16.9107C19.6908 18.1502 22.9483 19.3079 23.3141 20.0348C23.6799 20.7617 23.4453 22.9372 23.516 23.1186C23.5866 23.3 23.8759 23.7661 24.4445 23.8039Z" fill="#DCA429"/>
<path d="M24.4445 23.8039L24.4344 11.9725C24.7473 11.9322 25.4739 12.3454 25.8373 13.4439C26.2006 14.5423 27.2099 15.3687 28.0072 15.7819C28.8045 16.1951 29.7936 16.0888 30.268 16.2125C30.7423 16.3362 30.4093 16.7804 30.268 16.9107C29.178 18.1502 25.9205 19.3079 25.5547 20.0348C25.1889 20.7617 25.4235 22.9372 25.3528 23.1186C25.2822 23.3 25.0131 23.7661 24.4445 23.8039Z" fill="#C99725"/>
<path d="M22.9205 14.371C23.4655 13.0005 24.4546 12.8997 24.4546 12.8997V11.126C24.4546 11.126 23.0719 11.126 22.5773 12.0632C22.0828 13.0005 22.1837 13.5447 22.1434 14.361C22.103 15.1773 21.8002 16.7797 21.8002 16.7797C21.8002 16.7797 22.3755 15.7416 22.9205 14.371Z" fill="#DDCD8F"/>
<path d="M25.9786 14.371C25.4336 13.0005 24.4445 12.8997 24.4445 12.8997V11.126C24.4445 11.126 25.8272 11.126 26.3217 12.0632C26.8163 13.0005 26.7153 13.5447 26.7557 14.361C26.7961 15.1773 27.0989 16.7797 27.0989 16.7797C27.0989 16.7797 26.5236 15.7416 25.9786 14.371Z" fill="#DDCD8F"/>
<path d="M15.1289 6.21805C14.1116 6.00843 13.689 3.45671 13.6049 2.20705C15.4241 3.17637 16.1276 3.41839 16.875 3.36601C17.914 2.91997 18.3448 2.52096 18.9843 1.683C19.5746 2.62337 19.9197 3.0077 20.6194 2.84196C21.6198 2.03323 22.3423 1.67512 23.8389 1.15896V0H24.4243V6.79249H14.705L15.1289 6.21805Z" fill="#B1B1B1"/>
<path d="M33.7197 6.21805C34.737 6.00843 35.1596 3.45671 35.2437 2.20705C33.4245 3.17637 32.721 3.41839 31.9736 3.36601C30.9346 2.91997 30.5038 2.52096 29.8643 1.683C29.2741 2.62337 28.9289 3.0077 28.2292 2.84196C27.2288 2.03323 26.5063 1.67512 25.0097 1.15896V0H24.4243V6.79249H34.1436L33.7197 6.21805Z" fill="#B1B1B1"/>
</svg>
