<svg width="412" height="522" viewBox="0 0 412 522" fill="none" xmlns="http://www.w3.org/2000/svg">
<path d="M0 397.349C49.2873 501.204 157.841 523.661 205.958 521.907V228.159H87.2371C32.1114 250.152 6.10999 350.116 0 397.349Z" fill="#1A1919"/>
<path d="M412 397.349C362.713 501.204 254.159 523.661 206.042 521.907V228.159H324.763C379.889 250.152 405.89 350.116 412 397.349Z" fill="#1C1B1B"/>
<path d="M7.6377 267.444C27.1897 243.687 88.8779 221.909 117.278 213.99H206.043V465.907C163.273 460.816 109.697 418.193 88.2556 397.518C112.56 389.033 108.905 373.732 104.04 367.142C89.7152 356.01 76.0639 371.781 71.0288 381.058C46.7247 369.45 18.6413 300.479 7.6377 267.444Z" fill="#595353"/>
<path d="M404.108 267.444C384.556 243.687 322.868 221.909 294.468 213.99H205.703V465.907C248.473 460.816 302.049 418.193 323.49 397.518C299.186 389.033 302.841 373.732 307.706 367.142C322.031 356.01 335.682 371.781 340.717 381.058C365.021 369.45 393.105 300.479 404.108 267.444Z" fill="#555050"/>
<path d="M22.3184 282.208C29.6164 273.299 55.0054 250.117 80.5329 227.905L203.497 242.075V359.845C203.497 359.845 184.318 365.276 184.063 386.403C183.809 407.53 202.139 414.828 202.139 414.828V458.779C157.158 442.255 134.191 429.425 98.6083 398.027C108.244 391.303 114.138 386.064 114.138 376.051C114.138 366.039 104.549 355.603 95.3836 356.621C86.2186 357.639 80.7876 360.694 71.2831 374.1C65.9577 371.664 15.0204 291.117 22.3184 282.208Z" fill="#2B2626"/>
<path d="M389.427 282.293C382.129 273.384 356.74 250.202 331.212 227.99L208.249 242.16V359.93C208.249 359.93 227.427 365.361 227.682 386.488C227.936 407.615 209.606 414.912 209.606 414.912V458.864C254.587 442.34 277.554 429.51 313.137 398.112C303.501 391.388 297.607 386.149 297.607 376.136C297.607 366.124 307.196 355.688 316.362 356.706C325.527 357.724 330.958 360.779 340.462 374.185C345.787 371.749 396.725 291.202 389.427 282.293Z" fill="#2B2626"/>
<path d="M52.9531 255.057C65.9465 246.965 71.8393 241.302 81.2118 230.281L88.8493 222.644L206.127 248.948V346.015C192.179 329.581 188.269 319.929 182.366 302.063C173.612 315.996 166.854 321.01 152.071 325.821C154.702 312.401 154.361 304.877 152.071 291.457C142.158 302.06 136.141 306.126 124.236 308.597C126.306 298.844 127.037 293.31 124.236 282.802C115.164 289.909 109.565 293.051 97.9294 295.954C100.643 287.67 100.951 283.026 97.9294 274.742C89.1973 278.108 84.3329 279.218 75.6959 280.257C79.4933 269.302 80.6203 263.84 81.2118 255.057C70.1766 257.173 63.9884 257.28 52.9531 255.057Z" fill="#050504"/>
<path d="M358.537 255.057C345.544 246.965 339.651 241.302 330.279 230.281L322.641 222.644L205.363 248.948V346.015C219.311 329.581 223.222 319.929 229.125 302.063C237.879 315.996 244.637 321.01 259.42 325.821C256.788 312.401 257.13 304.877 259.42 291.457C269.332 302.06 275.349 306.126 287.254 308.597C285.184 298.844 284.453 293.31 287.254 282.802C296.326 289.909 301.925 293.051 313.561 295.954C310.848 287.67 310.539 283.026 313.561 274.742C322.293 278.108 327.158 279.218 335.795 280.257C331.997 269.302 330.87 263.84 330.279 255.057C341.314 257.173 347.502 257.28 358.537 255.057Z" fill="#090908"/>
<path d="M205.109 306.221V21.0425C149.167 23.4037 107.774 79.249 103.615 98.0855C99.4571 116.922 97.0025 154.972 92.1591 185.141C87.3157 215.309 67.7253 234.536 64.3247 235.456C76.947 235.105 82.9417 233.733 92.1591 229.687C84.5506 237.645 81.781 242.125 78.4965 250.135C85.9063 247.992 89.7364 246.521 95.8081 243.262C96.9092 251.642 96.765 256.641 95.8081 265.832C109.582 260.108 116.314 255.108 126.698 243.262C128.711 255.956 128.832 263.173 126.698 276.269C139.563 271.31 145.945 267.512 155.041 257.941C158.492 269.881 157.947 276.972 155.041 289.93C171.292 284.295 176.403 276.718 180.754 257.941C185.219 278.924 188.787 290.141 205.109 306.221Z" fill="#FEFFFC"/>
<path d="M205.109 306.221V21.0425C261.051 23.4037 302.954 79.249 307.112 98.0855C311.27 116.922 313.725 154.972 318.568 185.141C323.412 215.309 343.002 234.536 346.403 235.456C333.78 235.105 327.786 233.733 318.568 229.687C326.177 237.645 328.946 242.125 332.231 250.135C324.821 247.992 320.991 246.521 314.919 243.262C313.818 251.642 313.962 256.641 314.919 265.832C301.146 260.108 294.413 255.108 284.03 243.262C282.016 255.956 281.895 263.173 284.03 276.269C271.165 271.31 264.782 267.512 255.686 257.941C252.236 269.881 252.78 276.972 255.686 289.93C239.435 284.295 234.324 276.718 229.973 257.941C225.509 278.924 221.431 290.141 205.109 306.221Z" fill="#E8E9E7"/>
<path d="M145.458 91.1279L197.562 128.122L195.611 155.019C195.611 155.019 149.701 171.169 130.353 173.007C130.353 173.007 115.926 117.601 116.266 96.3037L145.458 91.1279Z" fill="#EFEDE7"/>
<path d="M264.936 91.1279L212.832 128.122L214.783 155.019C214.783 155.019 260.693 171.169 280.041 173.007C280.041 173.007 294.468 117.601 294.128 96.3037L264.936 91.1279Z" fill="#C7C5C3"/>
<path d="M255.516 198.717C254.905 186.838 221.94 165.71 205.533 156.632V214.838C222.449 214.414 256.127 210.596 255.516 198.717Z" fill="#C7C5C3"/>
<path d="M155.474 198.717C156.085 186.838 189.05 165.71 205.457 156.632V214.838C188.541 214.414 154.863 210.596 155.474 198.717Z" fill="#EFEDE7"/>
<mask id="mask0_195_194" style="mask-type:alpha" maskUnits="userSpaceOnUse" x="116" y="91" width="82" height="83">
<path d="M145.458 91.1279L197.562 128.122L195.611 155.019C195.611 155.019 149.701 171.169 130.353 173.007C130.353 173.007 115.926 117.601 116.266 96.3037L145.458 91.1279Z" fill="#EFEDE7"/>
</mask>
<g mask="url(#mask0_195_194)">
<path d="M177.02 106.316C177.02 115.173 169.84 122.353 160.982 122.353C152.124 122.353 144.943 115.173 144.943 106.316C144.943 97.4593 152.124 90.2795 160.982 90.2795C169.84 90.2795 177.02 97.4593 177.02 106.316Z" fill="#F0C76F"/>
<path d="M167.007 106.316C167.007 109.643 164.309 112.34 160.982 112.34C157.654 112.34 154.956 109.643 154.956 106.316C154.956 102.989 157.654 100.292 160.982 100.292C164.309 100.292 167.007 102.989 167.007 106.316Z" fill="#0A0A0A"/>
</g>
<mask id="mask1_195_194" style="mask-type:alpha" maskUnits="userSpaceOnUse" x="212" y="91" width="83" height="83">
<path d="M264.936 91.1279L212.832 128.122L214.783 155.019C214.783 155.019 260.693 171.169 280.041 173.007C280.041 173.007 294.468 117.601 294.128 96.3037L264.936 91.1279Z" fill="#C7C5C3"/>
</mask>
<g mask="url(#mask1_195_194)">
<path d="M269.688 106.316C269.688 115.173 262.508 122.353 253.65 122.353C244.792 122.353 237.611 115.173 237.611 106.316C237.611 97.4593 244.792 90.2795 253.65 90.2795C262.508 90.2795 269.688 97.4593 269.688 106.316Z" fill="#F0C76F"/>
<path d="M259.675 106.316C259.675 109.643 256.977 112.34 253.65 112.34C250.322 112.34 247.624 109.643 247.624 106.316C247.624 102.989 250.322 100.292 253.65 100.292C256.977 100.292 259.675 102.989 259.675 106.316Z" fill="#0A0A0A"/>
</g>
<path d="M205.873 200.414L205.788 100.801C202.903 100.546 196.708 103.94 193.653 113.189C190.598 122.437 182.112 129.395 175.408 132.874C168.704 136.353 160.387 135.457 156.399 136.499C152.41 137.541 155.211 141.28 156.399 142.377C165.564 152.813 192.953 162.56 196.029 168.68C199.105 174.8 197.132 193.117 197.726 194.644C198.32 196.171 201.092 200.096 205.873 200.414Z" fill="#DCA429"/>
<path d="M205.873 200.414L205.788 100.801C208.419 100.462 214.529 103.94 217.584 113.189C220.639 122.437 229.125 129.395 235.829 132.874C242.533 136.353 250.849 135.457 254.838 136.499C258.826 137.541 256.026 141.28 254.838 142.377C245.673 152.813 218.283 162.56 215.208 168.68C212.132 174.8 214.104 193.117 213.51 194.644C212.916 196.171 210.654 200.096 205.873 200.414Z" fill="#C99725"/>
<path d="M192.719 120.995C197.302 109.456 205.618 108.607 205.618 108.607V93.6736C205.618 93.6736 193.992 93.6736 189.834 101.565C185.676 109.456 186.525 114.037 186.185 120.91C185.846 127.783 183.3 141.274 183.3 141.274C183.3 141.274 188.137 132.534 192.719 120.995Z" fill="#DDCD8F"/>
<path d="M218.263 120.995C213.68 109.456 205.364 108.607 205.364 108.607V93.6736C205.364 93.6736 216.99 93.6736 221.148 101.565C225.306 109.456 224.457 114.037 224.797 120.91C225.136 127.783 227.682 141.274 227.682 141.274C227.682 141.274 222.845 132.534 218.263 120.995Z" fill="#DDCD8F"/>
<path d="M114.393 18.582C115.1 29.1033 118.653 50.5871 127.207 52.3519L123.642 57.1883H287.085L283.52 52.3519C292.074 50.5871 295.627 29.1033 296.334 18.582C281.039 26.743 275.123 28.7806 268.84 28.3396C260.103 24.5842 256.481 21.2249 251.104 14.1698C246.141 22.087 243.239 25.3229 237.356 23.9275C228.944 17.1185 222.869 14.1035 210.285 9.75765V0H200.442V9.75765C187.858 14.1035 181.783 17.1185 173.371 23.9275C167.488 25.3229 164.586 22.087 159.623 14.1698C154.246 21.2249 150.624 24.5842 141.888 28.3396C135.604 28.7806 129.688 26.743 114.393 18.582Z" fill="#B1B1B1"/>
</svg>
