<svg width="381" height="482" viewBox="0 0 381 482" fill="none" xmlns="http://www.w3.org/2000/svg">
<path d="M0 366.901C45.5787 462.798 145.965 483.534 190.461 481.914V210.676H80.6731C29.6952 230.984 5.65026 323.287 0 366.901Z" fill="#1A1919"/>
<path d="M381 366.901C335.421 462.798 235.035 483.534 190.539 481.914V210.676H300.327C351.305 230.984 375.35 323.287 381 366.901Z" fill="#1C1B1B"/>
<path d="M7.06287 246.951C25.1437 225.014 82.1904 204.904 108.454 197.592H190.539V430.205C150.987 425.504 101.443 386.148 81.6149 367.057C104.09 359.222 100.711 345.094 96.2114 339.009C82.9647 328.73 70.3405 343.292 65.6843 351.858C43.2088 341.14 17.2386 277.454 7.06287 246.951Z" fill="#595353"/>
<path d="M373.702 246.951C355.621 225.014 298.574 204.904 272.311 197.592H190.225V430.205C229.777 425.504 279.322 386.148 299.15 367.057C276.674 359.222 280.054 345.094 284.553 339.009C297.8 328.73 310.424 343.292 315.08 351.858C337.556 341.14 363.526 277.454 373.702 246.951Z" fill="#555050"/>
<path d="M20.6392 260.583C27.3881 252.357 50.8667 230.951 74.4735 210.441L188.185 223.525V332.271C188.185 332.271 170.449 337.285 170.214 356.794C169.979 376.302 186.929 383.04 186.929 383.04V423.624C145.333 408.366 124.095 396.519 91.1889 367.527C100.099 361.318 105.55 356.48 105.55 347.235C105.55 337.99 96.6822 328.354 88.2068 329.294C79.7314 330.234 74.709 333.054 65.9197 345.433C60.9949 343.184 13.8903 268.81 20.6392 260.583Z" fill="#2B2626"/>
<path d="M360.125 260.662C353.377 252.435 329.898 231.03 306.291 210.519L192.58 223.603V332.349C192.58 332.349 210.315 337.364 210.551 356.872C210.786 376.381 193.835 383.118 193.835 383.118V423.702C235.432 408.444 256.67 396.597 289.576 367.606C280.665 361.397 275.215 356.559 275.215 347.314C275.215 338.069 284.082 328.432 292.558 329.372C301.033 330.312 306.056 333.133 314.845 345.512C319.77 343.262 366.874 268.888 360.125 260.662Z" fill="#2B2626"/>
<path d="M48.9689 235.512C60.9846 228.041 66.434 222.811 75.1013 212.635L82.1641 205.583L190.618 229.871V319.5C177.719 304.325 174.103 295.413 168.644 278.916C160.549 291.781 154.299 296.411 140.629 300.854C143.062 288.462 142.746 281.515 140.629 269.123C131.462 278.914 125.898 282.668 114.889 284.949C116.803 275.944 117.479 270.835 114.889 261.132C106.499 267.694 101.321 270.595 90.561 273.275C93.0703 265.626 93.3555 261.338 90.561 253.689C82.4859 256.797 77.9875 257.822 70.0004 258.781C73.5121 248.666 74.5543 243.622 75.1013 235.512C64.8964 237.466 59.1738 237.565 48.9689 235.512Z" fill="#050504"/>
<path d="M331.56 235.512C319.545 228.041 314.095 222.811 305.428 212.635L298.365 205.583L189.911 229.871V319.5C202.81 304.325 206.426 295.413 211.885 278.916C219.98 291.781 226.23 296.411 239.9 300.854C237.467 288.462 237.783 281.515 239.9 269.123C249.067 278.914 254.631 282.668 265.641 284.949C263.726 275.944 263.05 270.835 265.641 261.132C274.03 267.694 279.208 270.595 289.968 273.275C287.459 265.626 287.174 261.338 289.968 253.689C298.043 256.797 302.542 257.822 310.529 258.781C307.017 248.666 305.975 243.622 305.428 235.512C315.633 237.466 321.355 237.565 331.56 235.512Z" fill="#090908"/>
<path d="M190.147 282.755V19.4301C138.414 21.6104 99.6642 73.1764 95.8189 90.5695C91.9736 107.963 89.7037 143.097 85.2247 170.954C80.7457 198.81 62.6293 216.564 59.4846 217.414C71.1572 217.089 76.7008 215.823 85.2247 212.086C78.1886 219.435 75.6275 223.572 72.5901 230.968C79.4424 228.989 82.9843 227.631 88.5991 224.622C89.6174 232.359 89.484 236.975 88.5991 245.462C101.336 240.177 107.562 235.559 117.164 224.622C119.026 236.343 119.139 243.006 117.164 255.099C129.061 250.52 134.964 247.013 143.375 238.176C146.566 249.2 146.063 255.748 143.375 267.713C158.404 262.51 163.13 255.514 167.153 238.176C171.282 257.55 175.053 267.908 190.147 282.755Z" fill="#FEFFFC"/>
<path d="M190.147 282.755V19.4301C241.879 21.6104 280.629 73.1764 284.475 90.5695C288.32 107.963 290.59 143.097 295.069 170.954C299.548 198.81 317.664 216.564 320.809 217.414C309.136 217.089 303.593 215.823 295.069 212.086C302.105 219.435 304.666 223.572 307.704 230.968C300.851 228.989 297.309 227.631 291.695 224.622C290.676 232.359 290.81 236.975 291.695 245.462C278.957 240.177 272.732 235.559 263.129 224.622C261.268 236.343 261.155 243.006 263.129 255.099C251.232 250.52 245.33 247.013 236.918 238.176C233.727 249.2 234.231 255.748 236.918 267.713C221.89 262.51 217.164 255.514 213.14 238.176C209.012 257.55 205.24 267.908 190.147 282.755Z" fill="#E8E9E7"/>
<path d="M134.513 84.145L182.697 118.304L180.892 143.141C180.892 143.141 138.437 158.053 120.544 159.75C120.544 159.75 107.203 108.589 107.517 88.9242L134.513 84.145Z" fill="#EFEDE7"/>
<path d="M245.001 84.145L196.817 118.304L198.622 143.141C198.622 143.141 241.078 158.053 258.97 159.75C258.97 159.75 272.311 108.589 271.997 88.9242L245.001 84.145Z" fill="#C7C5C3"/>
<path d="M236.291 183.489C235.726 172.521 205.24 153.012 190.068 144.629V198.375C205.711 197.984 236.856 194.458 236.291 183.489Z" fill="#C7C5C3"/>
<path d="M143.775 183.489C144.34 172.521 174.826 153.012 189.998 144.629V198.375C174.355 197.984 143.21 194.458 143.775 183.489Z" fill="#EFEDE7"/>
<mask id="mask0_16_109" style="mask-type:alpha" maskUnits="userSpaceOnUse" x="107" y="84" width="76" height="76">
<path d="M134.513 84.145L182.697 118.304L180.892 143.141C180.892 143.141 138.437 158.053 120.544 159.75C120.544 159.75 107.203 108.589 107.517 88.9242L134.513 84.145Z" fill="#EFEDE7"/>
</mask>
<g mask="url(#mask0_16_109)">
<path d="M163.7 98.1692C163.7 106.347 157.06 112.977 148.869 112.977C140.677 112.977 134.037 106.347 134.037 98.1692C134.037 89.9911 140.677 83.3615 148.869 83.3615C157.06 83.3615 163.7 89.9911 163.7 98.1692Z" fill="#F0C76F"/>
<path d="M154.44 98.1692C154.44 101.241 151.946 103.732 148.869 103.732C145.791 103.732 143.297 101.241 143.297 98.1692C143.297 95.097 145.791 92.6065 148.869 92.6065C151.946 92.6065 154.44 95.097 154.44 98.1692Z" fill="#0A0A0A"/>
</g>
<mask id="mask1_16_109" style="mask-type:alpha" maskUnits="userSpaceOnUse" x="196" y="84" width="77" height="76">
<path d="M245.001 84.145L196.817 118.304L198.622 143.141C198.622 143.141 241.078 158.053 258.97 159.75C258.97 159.75 272.311 108.589 271.997 88.9242L245.001 84.145Z" fill="#C7C5C3"/>
</mask>
<g mask="url(#mask1_16_109)">
<path d="M249.396 98.1692C249.396 106.347 242.756 112.977 234.564 112.977C226.373 112.977 219.732 106.347 219.732 98.1692C219.732 89.9911 226.373 83.3615 234.564 83.3615C242.756 83.3615 249.396 89.9911 249.396 98.1692Z" fill="#F0C76F"/>
<path d="M240.136 98.1692C240.136 101.241 237.641 103.732 234.564 103.732C231.487 103.732 228.992 101.241 228.992 98.1692C228.992 95.097 231.487 92.6065 234.564 92.6065C237.641 92.6065 240.136 95.097 240.136 98.1692Z" fill="#0A0A0A"/>
</g>
<path d="M190.068 185.056L189.99 93.0765C187.322 92.8416 181.907 95.9755 179.082 104.515C176.256 113.055 168.409 119.48 162.209 122.692C156.01 125.904 148.319 125.077 144.631 126.039C140.942 127.001 143.532 130.454 144.631 131.467C153.106 141.103 178.435 150.103 181.279 155.754C184.123 161.406 182.299 178.318 182.849 179.729C183.398 181.139 185.647 184.763 190.068 185.056Z" fill="#DCA429"/>
<path d="M190.068 185.056L189.99 93.0765C192.423 92.7632 198.073 95.9755 200.898 104.515C203.723 113.055 211.571 119.48 217.77 122.692C223.97 125.904 231.661 125.077 235.349 126.039C239.037 127.001 236.448 130.454 235.349 131.467C226.873 141.103 201.545 150.103 198.701 155.754C195.856 161.406 197.681 178.318 197.131 179.729C196.582 181.139 194.489 184.763 190.068 185.056Z" fill="#C99725"/>
<path d="M178.219 111.723C182.456 101.068 190.147 100.285 190.147 100.285V86.4955C190.147 86.4955 179.396 86.4955 175.55 93.7818C171.705 101.068 172.49 105.299 172.176 111.645C171.862 117.991 169.508 130.448 169.508 130.448C169.508 130.448 173.981 122.379 178.219 111.723Z" fill="#DDCD8F"/>
<path d="M201.997 111.723C197.759 101.068 190.068 100.285 190.068 100.285V86.4955C190.068 86.4955 200.82 86.4955 204.665 93.7818C208.51 101.068 207.725 105.299 208.039 111.645C208.353 117.991 210.707 130.448 210.707 130.448C210.707 130.448 206.234 122.379 201.997 111.723Z" fill="#DDCD8F"/>
<path d="M117.635 48.3403C109.725 46.7107 106.439 26.8731 105.785 17.1581C119.93 24.6937 125.401 26.5752 131.212 26.168C139.291 22.7004 142.64 19.5984 147.613 13.084C152.202 20.3946 154.886 23.3825 160.326 22.0939C168.105 15.8067 173.723 13.0227 185.36 9.00994V0H189.911V52.8061H114.339L117.635 48.3403Z" fill="#B1B1B1"/>
<path d="M262.188 48.3403C270.098 46.7107 273.384 26.8731 274.037 17.1581C259.893 24.6937 254.422 26.5752 248.611 26.168C240.532 22.7004 237.183 19.5984 232.21 13.084C227.621 20.3946 224.937 23.3825 219.497 22.0939C211.718 15.8067 206.1 13.0227 194.463 9.00994V0H189.911V52.8061H265.484L262.188 48.3403Z" fill="#B1B1B1"/>
</svg>
